<?xml version="1.0" encoding="UTF-8" standalone="no"?>
<!DOCTYPE svg PUBLIC "-//W3C//DTD SVG 1.1//EN"
 "http://www.w3.org/Graphics/SVG/1.1/DTD/svg11.dtd">
<!-- Generated by graphviz version 15.0.0 (20260523.1842)
 -->
<!-- Title: compaction_handoff Pages: 1 -->
<svg width="604pt" height="804pt"
 viewBox="0.00 0.00 604.00 804.00" xmlns="http://www.w3.org/2000/svg" xmlns:xlink="http://www.w3.org/1999/xlink">
<g id="graph0" class="graph" transform="scale(1 1) rotate(0) translate(4 800.12)">
<title>compaction_handoff</title>
<polygon fill="white" stroke="none" points="-4,4 -4,-800.12 600,-800.12 600,4 -4,4"/>
<g id="clust1" class="cluster">
<title>cluster_router</title>
<polygon fill="#fffde7" stroke="#fff9c4" points="89,-640.12 89,-788.12 272,-788.12 272,-640.12 89,-640.12"/>
<text xml:space="preserve" text-anchor="middle" x="180.5" y="-770.83" font-family="Helvetica,sans-Serif" font-size="14.00">The Massive (context_loop)</text>
</g>
<g id="clust2" class="cluster">
<title>cluster_old</title>
<polygon fill="#fef6f5" stroke="#fce8e6" points="8,-99.38 8,-621.12 296,-621.12 296,-99.38 8,-99.38"/>
<text xml:space="preserve" text-anchor="middle" x="152" y="-603.83" font-family="Helvetica,sans-Serif" font-size="14.00">Outgoing Invader (old session)</text>
</g>
<g id="clust3" class="cluster">
<title>cluster_new</title>
<polygon fill="#f8faff" stroke="#e8f0fe" points="304,-8 304,-454.12 588,-454.12 588,-8 304,-8"/>
<text xml:space="preserve" text-anchor="middle" x="446" y="-436.82" font-family="Helvetica,sans-Serif" font-size="14.00">Incoming Invader (replacement, same topic)</text>
</g>
<!-- trig -->
<g id="node1" class="node">
<title>trig</title>
<path fill="#f5f5f5" stroke="black" d="M232.25,-757.12C232.25,-757.12 127.75,-757.12 127.75,-757.12 121.75,-757.12 115.75,-751.12 115.75,-745.12 115.75,-745.12 115.75,-733.12 115.75,-733.12 115.75,-727.12 121.75,-721.12 127.75,-721.12 127.75,-721.12 232.25,-721.12 232.25,-721.12 238.25,-721.12 244.25,-727.12 244.25,-733.12 244.25,-733.12 244.25,-745.12 244.25,-745.12 244.25,-751.12 238.25,-757.12 232.25,-757.12"/>
<text xml:space="preserve" text-anchor="middle" x="180" y="-740.88" font-family="Helvetica,sans-Serif" font-size="10.00">gauge crosses trigger_pct</text>
<text xml:space="preserve" text-anchor="middle" x="180" y="-729.62" font-family="Helvetica,sans-Serif" font-size="10.00">(not already compacting)</text>
</g>
<!-- nudge -->
<g id="node2" class="node">
<title>nudge</title>
<path fill="#f5f5f5" stroke="black" d="M210.88,-684.12C210.88,-684.12 149.12,-684.12 149.12,-684.12 143.12,-684.12 137.12,-678.12 137.12,-672.12 137.12,-672.12 137.12,-660.12 137.12,-660.12 137.12,-654.12 143.12,-648.12 149.12,-648.12 149.12,-648.12 210.88,-648.12 210.88,-648.12 216.88,-648.12 222.88,-654.12 222.88,-660.12 222.88,-660.12 222.88,-672.12 222.88,-672.12 222.88,-678.12 216.88,-684.12 210.88,-684.12"/>
<text xml:space="preserve" text-anchor="middle" x="180" y="-662.25" font-family="Helvetica,sans-Serif" font-size="10.00">nudge /compact</text>
</g>
<!-- trig&#45;&gt;nudge -->
<g id="edge1" class="edge">
<title>trig&#45;&gt;nudge</title>
<path fill="none" stroke="black" d="M180,-720.94C180,-713.35 180,-704.23 180,-695.66"/>
<polygon fill="black" stroke="black" points="183.5,-695.67 180,-685.67 176.5,-695.67 183.5,-695.67"/>
</g>
<!-- save -->
<g id="node3" class="node">
<title>save</title>
<path fill="#f5f5f5" stroke="black" d="M243.88,-590.12C243.88,-590.12 116.12,-590.12 116.12,-590.12 110.12,-590.12 104.12,-584.12 104.12,-578.12 104.12,-578.12 104.12,-566.12 104.12,-566.12 104.12,-560.12 110.12,-554.12 116.12,-554.12 116.12,-554.12 243.88,-554.12 243.88,-554.12 249.88,-554.12 255.88,-560.12 255.88,-566.12 255.88,-566.12 255.88,-578.12 255.88,-578.12 255.88,-584.12 249.88,-590.12 243.88,-590.12"/>
<text xml:space="preserve" text-anchor="middle" x="180" y="-574.62" font-family="Helvetica,sans-Serif" font-size="10.00">run SAVE hook →</text>
<text xml:space="preserve" text-anchor="middle" x="180" y="-561.88" font-family="Helvetica,sans-Serif" font-size="10.00">write SESS/context&#45;restore.md</text>
</g>
<!-- nudge&#45;&gt;save -->
<g id="edge2" class="edge">
<title>nudge&#45;&gt;save</title>
<path fill="none" stroke="black" d="M180,-647.82C180,-634.84 180,-616.79 180,-601.68"/>
<polygon fill="black" stroke="black" points="183.5,-601.87 180,-591.87 176.5,-601.87 183.5,-601.87"/>
</g>
<!-- lock -->
<g id="node4" class="node">
<title>lock</title>
<path fill="#f5f5f5" stroke="black" d="M225.12,-517.12C225.12,-517.12 134.88,-517.12 134.88,-517.12 128.88,-517.12 122.88,-511.12 122.88,-505.12 122.88,-505.12 122.88,-493.12 122.88,-493.12 122.88,-487.12 128.88,-481.12 134.88,-481.12 134.88,-481.12 225.12,-481.12 225.12,-481.12 231.12,-481.12 237.12,-487.12 237.12,-493.12 237.12,-493.12 237.12,-505.12 237.12,-505.12 237.12,-511.12 231.12,-517.12 225.12,-517.12"/>
<text xml:space="preserve" text-anchor="middle" x="180" y="-500.88" font-family="Helvetica,sans-Serif" font-size="10.00">touch compacting.lock</text>
<text xml:space="preserve" text-anchor="middle" x="180" y="-489.62" font-family="Helvetica,sans-Serif" font-size="10.00">rm handoff&#45;ready</text>
</g>
<!-- save&#45;&gt;lock -->
<g id="edge3" class="edge">
<title>save&#45;&gt;lock</title>
<path fill="none" stroke="black" d="M180,-553.94C180,-546.35 180,-537.23 180,-528.66"/>
<polygon fill="black" stroke="black" points="183.5,-528.67 180,-518.67 176.5,-528.67 183.5,-528.67"/>
</g>
<!-- spawn -->
<g id="node5" class="node">
<title>spawn</title>
<path fill="#f5f5f5" stroke="black" d="M236.38,-426C236.38,-426 123.62,-426 123.62,-426 117.62,-426 111.62,-420 111.62,-414 111.62,-414 111.62,-396.25 111.62,-396.25 111.62,-390.25 117.62,-384.25 123.62,-384.25 123.62,-384.25 236.38,-384.25 236.38,-384.25 242.38,-384.25 248.38,-390.25 248.38,-396.25 248.38,-396.25 248.38,-414 248.38,-414 248.38,-420 242.38,-426 236.38,-426"/>
<text xml:space="preserve" text-anchor="middle" x="180" y="-412.5" font-family="Helvetica,sans-Serif" font-size="10.00">telegram&#45;spawn.sh</text>
<text xml:space="preserve" text-anchor="middle" x="180" y="-401.25" font-family="Helvetica,sans-Serif" font-size="10.00">&#45;&#45;attach &lt;thread&gt;</text>
<text xml:space="preserve" text-anchor="middle" x="180" y="-390" font-family="Helvetica,sans-Serif" font-size="10.00">&#45;&#45;restore context&#45;restore.md</text>
</g>
<!-- lock&#45;&gt;spawn -->
<g id="edge4" class="edge">
<title>lock&#45;&gt;spawn</title>
<path fill="none" stroke="black" d="M180,-480.82C180,-468.7 180,-452.16 180,-437.72"/>
<polygon fill="black" stroke="black" points="183.5,-437.75 180,-427.75 176.5,-437.75 183.5,-437.75"/>
</g>
<!-- wait -->
<g id="node6" class="node">
<title>wait</title>
<path fill="#fffde7" stroke="black" d="M165.43,-344.06C165.43,-344.06 78.07,-319.94 78.07,-319.94 72.28,-318.35 72.28,-315.15 78.07,-313.56 78.07,-313.56 165.43,-289.44 165.43,-289.44 171.22,-287.85 182.78,-287.85 188.57,-289.44 188.57,-289.44 275.93,-313.56 275.93,-313.56 281.72,-315.15 281.72,-318.35 275.93,-319.94 275.93,-319.94 188.57,-344.06 188.57,-344.06 182.78,-345.65 171.22,-345.65 165.43,-344.06"/>
<text xml:space="preserve" text-anchor="middle" x="177" y="-318.5" font-family="Helvetica,sans-Serif" font-size="10.00">wait for handoff&#45;ready</text>
<text xml:space="preserve" text-anchor="middle" x="177" y="-307.25" font-family="Helvetica,sans-Serif" font-size="10.00">(≤5 min)</text>
</g>
<!-- spawn&#45;&gt;wait -->
<g id="edge9" class="edge">
<title>spawn&#45;&gt;wait</title>
<path fill="none" stroke="black" d="M179.3,-384.09C179.04,-376.47 178.73,-367.48 178.42,-358.62"/>
<polygon fill="black" stroke="black" points="181.92,-358.56 178.07,-348.69 174.92,-358.8 181.92,-358.56"/>
</g>
<!-- restore -->
<g id="node10" class="node">
<title>restore</title>
<path fill="#f5f5f5" stroke="black" d="M427.12,-423.12C427.12,-423.12 330.88,-423.12 330.88,-423.12 324.88,-423.12 318.88,-417.12 318.88,-411.12 318.88,-411.12 318.88,-399.12 318.88,-399.12 318.88,-393.12 324.88,-387.12 330.88,-387.12 330.88,-387.12 427.12,-387.12 427.12,-387.12 433.12,-387.12 439.12,-393.12 439.12,-399.12 439.12,-399.12 439.12,-411.12 439.12,-411.12 439.12,-417.12 433.12,-423.12 427.12,-423.12"/>
<text xml:space="preserve" text-anchor="middle" x="379" y="-406.88" font-family="Helvetica,sans-Serif" font-size="10.00">START hook restores</text>
<text xml:space="preserve" text-anchor="middle" x="379" y="-395.62" font-family="Helvetica,sans-Serif" font-size="10.00">from context&#45;restore.md</text>
</g>
<!-- spawn&#45;&gt;restore -->
<g id="edge5" class="edge">
<title>spawn&#45;&gt;restore</title>
<path fill="none" stroke="black" stroke-dasharray="5,2" d="M248.76,-405.12C267.64,-405.12 288.16,-405.12 307.21,-405.12"/>
<polygon fill="black" stroke="black" points="307.03,-408.63 317.03,-405.13 307.03,-401.63 307.03,-408.63"/>
<text xml:space="preserve" text-anchor="middle" x="283.62" y="-409.32" font-family="Helvetica,sans-Serif" font-size="9.00">new process</text>
</g>
<!-- release -->
<g id="node7" class="node">
<title>release</title>
<path fill="#f5f5f5" stroke="black" d="M119.5,-240.5C119.5,-240.5 28.5,-240.5 28.5,-240.5 22.5,-240.5 16.5,-234.5 16.5,-228.5 16.5,-228.5 16.5,-216.5 16.5,-216.5 16.5,-210.5 22.5,-204.5 28.5,-204.5 28.5,-204.5 119.5,-204.5 119.5,-204.5 125.5,-204.5 131.5,-210.5 131.5,-216.5 131.5,-216.5 131.5,-228.5 131.5,-228.5 131.5,-234.5 125.5,-240.5 119.5,-240.5"/>
<text xml:space="preserve" text-anchor="middle" x="74" y="-224.25" font-family="Helvetica,sans-Serif" font-size="10.00">rm compacting.lock</text>
<text xml:space="preserve" text-anchor="middle" x="74" y="-213" font-family="Helvetica,sans-Serif" font-size="10.00">(releases replacement)</text>
</g>
<!-- wait&#45;&gt;release -->
<g id="edge12" class="edge">
<title>wait&#45;&gt;release</title>
<path fill="none" stroke="black" d="M151.54,-292.95C136.36,-279.35 117.08,-262.09 101.55,-248.17"/>
<polygon fill="black" stroke="black" points="104.26,-245.91 94.48,-241.84 99.59,-251.12 104.26,-245.91"/>
<text xml:space="preserve" text-anchor="middle" x="145.29" y="-259.7" font-family="Helvetica,sans-Serif" font-size="9.00">ready seen</text>
</g>
<!-- abort -->
<g id="node9" class="node">
<title>abort</title>
<path fill="#ffe0e0" stroke="black" d="M276.12,-240.5C276.12,-240.5 161.88,-240.5 161.88,-240.5 155.88,-240.5 149.88,-234.5 149.88,-228.5 149.88,-228.5 149.88,-216.5 149.88,-216.5 149.88,-210.5 155.88,-204.5 161.88,-204.5 161.88,-204.5 276.12,-204.5 276.12,-204.5 282.12,-204.5 288.12,-210.5 288.12,-216.5 288.12,-216.5 288.12,-228.5 288.12,-228.5 288.12,-234.5 282.12,-240.5 276.12,-240.5"/>
<text xml:space="preserve" text-anchor="middle" x="219" y="-225.75" font-family="Helvetica,sans-Serif" font-size="10.00">⚠️ replacement not ready →</text>
<text xml:space="preserve" text-anchor="middle" x="219" y="-211.5" font-family="Helvetica,sans-Serif" font-size="10.00">rm lock, stay live</text>
</g>
<!-- wait&#45;&gt;abort -->
<g id="edge10" class="edge">
<title>wait&#45;&gt;abort</title>
<path fill="none" stroke="black" d="M188.92,-289.56C194.35,-277.65 200.77,-263.55 206.28,-251.44"/>
<polygon fill="black" stroke="black" points="209.45,-252.92 210.41,-242.37 203.08,-250.02 209.45,-252.92"/>
<text xml:space="preserve" text-anchor="middle" x="218" y="-259.7" font-family="Helvetica,sans-Serif" font-size="9.00">timeout</text>
</g>
<!-- retire -->
<g id="node8" class="node">
<title>retire</title>
<path fill="#f5f5f5" stroke="black" d="M119.5,-149.12C119.5,-149.12 28.5,-149.12 28.5,-149.12 22.5,-149.12 16.5,-143.12 16.5,-137.12 16.5,-137.12 16.5,-119.38 16.5,-119.38 16.5,-113.38 22.5,-107.38 28.5,-107.38 28.5,-107.38 119.5,-107.38 119.5,-107.38 125.5,-107.38 131.5,-113.38 131.5,-119.38 131.5,-119.38 131.5,-137.12 131.5,-137.12 131.5,-143.12 125.5,-149.12 119.5,-149.12"/>
<text xml:space="preserve" text-anchor="middle" x="74" y="-135.62" font-family="Helvetica,sans-Serif" font-size="10.00">retire tmux window</text>
<text xml:space="preserve" text-anchor="middle" x="74" y="-124.38" font-family="Helvetica,sans-Serif" font-size="10.00">(DEAD&#45; rename or kill)</text>
<text xml:space="preserve" text-anchor="middle" x="74" y="-113.12" font-family="Helvetica,sans-Serif" font-size="10.00">STOP</text>
</g>
<!-- release&#45;&gt;retire -->
<g id="edge15" class="edge">
<title>release&#45;&gt;retire</title>
<path fill="none" stroke="black" d="M74,-204.15C74,-191.88 74,-175.08 74,-160.5"/>
<polygon fill="black" stroke="black" points="77.5,-160.93 74,-150.93 70.5,-160.93 77.5,-160.93"/>
</g>
<!-- held -->
<g id="node13" class="node">
<title>held</title>
<path fill="#fffde7" stroke="black" d="M434.3,-156.08C434.3,-156.08 323.95,-130.92 323.95,-130.92 318.1,-129.58 318.1,-126.92 323.95,-125.58 323.95,-125.58 434.3,-100.42 434.3,-100.42 440.15,-99.08 451.85,-99.08 457.7,-100.42 457.7,-100.42 568.05,-125.58 568.05,-125.58 573.9,-126.92 573.9,-129.58 568.05,-130.92 568.05,-130.92 457.7,-156.08 457.7,-156.08 451.85,-157.42 440.15,-157.42 434.3,-156.08"/>
<text xml:space="preserve" text-anchor="middle" x="446" y="-130" font-family="Helvetica,sans-Serif" font-size="10.00">wait while compacting.lock</text>
<text xml:space="preserve" text-anchor="middle" x="446" y="-118.75" font-family="Helvetica,sans-Serif" font-size="10.00">exists (no drain yet)</text>
</g>
<!-- release&#45;&gt;held -->
<g id="edge13" class="edge">
<title>release&#45;&gt;held</title>
<path fill="none" stroke="black" stroke-dasharray="1,5" d="M131.74,-206.82C134.87,-206.04 137.97,-205.26 141,-204.5 219.74,-184.8 310,-162.57 371.78,-147.42"/>
<polygon fill="black" stroke="black" points="372.24,-150.91 381.12,-145.13 370.57,-144.11 372.24,-150.91"/>
<text xml:space="preserve" text-anchor="middle" x="269.86" y="-177.95" font-family="Helvetica,sans-Serif" font-size="9.00">lock gone</text>
</g>
<!-- attach -->
<g id="node11" class="node">
<title>attach</title>
<path fill="#f5f5f5" stroke="black" d="M437.75,-334.75C437.75,-334.75 324.25,-334.75 324.25,-334.75 318.25,-334.75 312.25,-328.75 312.25,-322.75 312.25,-322.75 312.25,-310.75 312.25,-310.75 312.25,-304.75 318.25,-298.75 324.25,-298.75 324.25,-298.75 437.75,-298.75 437.75,-298.75 443.75,-298.75 449.75,-304.75 449.75,-310.75 449.75,-310.75 449.75,-322.75 449.75,-322.75 449.75,-328.75 443.75,-334.75 437.75,-334.75"/>
<text xml:space="preserve" text-anchor="middle" x="381" y="-318.5" font-family="Helvetica,sans-Serif" font-size="10.00">/telegram attach mode</text>
<text xml:space="preserve" text-anchor="middle" x="381" y="-307.25" font-family="Helvetica,sans-Serif" font-size="10.00">(reuse thread, no new topic)</text>
</g>
<!-- restore&#45;&gt;attach -->
<g id="edge6" class="edge">
<title>restore&#45;&gt;attach</title>
<path fill="none" stroke="black" d="M379.4,-386.65C379.67,-375.17 380.02,-359.89 380.33,-346.64"/>
<polygon fill="black" stroke="black" points="383.83,-346.79 380.56,-336.72 376.83,-346.63 383.83,-346.79"/>
</g>
<!-- ready -->
<g id="node12" class="node">
<title>ready</title>
<path fill="#f5f5f5" stroke="black" d="M420.12,-240.5C420.12,-240.5 341.88,-240.5 341.88,-240.5 335.88,-240.5 329.88,-234.5 329.88,-228.5 329.88,-228.5 329.88,-216.5 329.88,-216.5 329.88,-210.5 335.88,-204.5 341.88,-204.5 341.88,-204.5 420.12,-204.5 420.12,-204.5 426.12,-204.5 432.12,-210.5 432.12,-216.5 432.12,-216.5 432.12,-228.5 432.12,-228.5 432.12,-234.5 426.12,-240.5 420.12,-240.5"/>
<text xml:space="preserve" text-anchor="middle" x="381" y="-218.62" font-family="Helvetica,sans-Serif" font-size="10.00">touch handoff&#45;ready</text>
</g>
<!-- attach&#45;&gt;ready -->
<g id="edge7" class="edge">
<title>attach&#45;&gt;ready</title>
<path fill="none" stroke="black" d="M381,-298.4C381,-285.38 381,-267.28 381,-252.13"/>
<polygon fill="black" stroke="black" points="384.5,-252.29 381,-242.29 377.5,-252.29 384.5,-252.29"/>
</g>
<!-- ready&#45;&gt;wait -->
<g id="edge11" class="edge">
<title>ready&#45;&gt;wait</title>
<path fill="none" stroke="black" stroke-dasharray="1,5" d="M342.35,-240.98C309.94,-255.63 263.4,-276.68 227.94,-292.71"/>
<polygon fill="black" stroke="black" points="226.84,-289.37 219.17,-296.68 229.73,-295.75 226.84,-289.37"/>
<text xml:space="preserve" text-anchor="middle" x="330.65" y="-259.7" font-family="Helvetica,sans-Serif" font-size="9.00">signals ready</text>
</g>
<!-- ready&#45;&gt;held -->
<g id="edge8" class="edge">
<title>ready&#45;&gt;held</title>
<path fill="none" stroke="black" d="M393.23,-204.15C401.17,-192.87 411.82,-177.77 421.46,-164.08"/>
<polygon fill="black" stroke="black" points="424.16,-166.32 427.06,-156.13 418.44,-162.29 424.16,-166.32"/>
</g>
<!-- live -->
<g id="node14" class="node">
<title>live</title>
<path fill="#e6f4ea" stroke="black" d="M491.12,-52C491.12,-52 400.88,-52 400.88,-52 394.88,-52 388.88,-46 388.88,-40 388.88,-40 388.88,-28 388.88,-28 388.88,-22 394.88,-16 400.88,-16 400.88,-16 491.12,-16 491.12,-16 497.12,-16 503.12,-22 503.12,-28 503.12,-28 503.12,-40 503.12,-40 503.12,-46 497.12,-52 491.12,-52"/>
<text xml:space="preserve" text-anchor="middle" x="446" y="-35.75" font-family="Helvetica,sans-Serif" font-size="10.00">begin draining —</text>
<text xml:space="preserve" text-anchor="middle" x="446" y="-24.5" font-family="Helvetica,sans-Serif" font-size="10.00">fresh PAK, full window</text>
</g>
<!-- held&#45;&gt;live -->
<g id="edge14" class="edge">
<title>held&#45;&gt;live</title>
<path fill="none" stroke="black" d="M446,-97.3C446,-86.52 446,-74.39 446,-63.72"/>
<polygon fill="black" stroke="black" points="449.5,-63.95 446,-53.95 442.5,-63.95 449.5,-63.95"/>
<text xml:space="preserve" text-anchor="middle" x="462.88" y="-71.2" font-family="Helvetica,sans-Serif" font-size="9.00">proceed</text>
</g>
</g>
</svg>
