<?xml version="1.0" encoding="UTF-8" standalone="no"?>
<!DOCTYPE svg PUBLIC "-//W3C//DTD SVG 1.1//EN"
 "http://www.w3.org/Graphics/SVG/1.1/DTD/svg11.dtd">
<!-- Generated by graphviz version 15.0.0 (20260523.1842)
 -->
<!-- Title: message_lifecycle Pages: 1 -->
<svg width="489pt" height="702pt"
 viewBox="0.00 0.00 489.00 702.00" xmlns="http://www.w3.org/2000/svg" xmlns:xlink="http://www.w3.org/1999/xlink">
<g id="graph0" class="graph" transform="scale(1 1) rotate(0) translate(4 697.75)">
<title>message_lifecycle</title>
<polygon fill="white" stroke="none" points="-4,4 -4,-697.75 484.89,-697.75 484.89,4 -4,4"/>
<!-- recv -->
<g id="node1" class="node">
<title>recv</title>
<path fill="#f5f5f5" stroke="black" d="M318.12,-693.75C318.12,-693.75 254.12,-693.75 254.12,-693.75 248.12,-693.75 242.12,-687.75 242.12,-681.75 242.12,-681.75 242.12,-669.75 242.12,-669.75 242.12,-663.75 248.12,-657.75 254.12,-657.75 254.12,-657.75 318.12,-657.75 318.12,-657.75 324.12,-657.75 330.12,-663.75 330.12,-669.75 330.12,-669.75 330.12,-681.75 330.12,-681.75 330.12,-687.75 324.12,-693.75 318.12,-693.75"/>
<text xml:space="preserve" text-anchor="middle" x="286.12" y="-677.5" font-family="Helvetica,sans-Serif" font-size="10.00">message arrives</text>
<text xml:space="preserve" text-anchor="middle" x="286.12" y="-666.25" font-family="Helvetica,sans-Serif" font-size="10.00">(getUpdates)</text>
</g>
<!-- route -->
<g id="node2" class="node">
<title>route</title>
<path fill="#f5f5f5" stroke="black" d="M328.25,-620.75C328.25,-620.75 244,-620.75 244,-620.75 238,-620.75 232,-614.75 232,-608.75 232,-608.75 232,-596.75 232,-596.75 232,-590.75 238,-584.75 244,-584.75 244,-584.75 328.25,-584.75 328.25,-584.75 334.25,-584.75 340.25,-590.75 340.25,-596.75 340.25,-596.75 340.25,-608.75 340.25,-608.75 340.25,-614.75 334.25,-620.75 328.25,-620.75"/>
<text xml:space="preserve" text-anchor="middle" x="286.12" y="-604.5" font-family="Helvetica,sans-Serif" font-size="10.00">route by thread_id</text>
<text xml:space="preserve" text-anchor="middle" x="286.12" y="-593.25" font-family="Helvetica,sans-Serif" font-size="10.00">append to inbox.jsonl</text>
</g>
<!-- recv&#45;&gt;route -->
<g id="edge1" class="edge">
<title>recv&#45;&gt;route</title>
<path fill="none" stroke="black" d="M286.12,-657.56C286.12,-649.98 286.12,-640.85 286.12,-632.29"/>
<polygon fill="black" stroke="black" points="289.63,-632.29 286.13,-622.29 282.63,-632.29 289.63,-632.29"/>
</g>
<!-- push -->
<g id="node3" class="node">
<title>push</title>
<path fill="#fffde7" stroke="black" d="M344.75,-547.75C344.75,-547.75 227.5,-547.75 227.5,-547.75 221.5,-547.75 215.5,-541.75 215.5,-535.75 215.5,-535.75 215.5,-523.75 215.5,-523.75 215.5,-517.75 221.5,-511.75 227.5,-511.75 227.5,-511.75 344.75,-511.75 344.75,-511.75 350.75,-511.75 356.75,-517.75 356.75,-523.75 356.75,-523.75 356.75,-535.75 356.75,-535.75 356.75,-541.75 350.75,-547.75 344.75,-547.75"/>
<text xml:space="preserve" text-anchor="middle" x="286.12" y="-531.5" font-family="Helvetica,sans-Serif" font-size="10.00">push: send&#45;keys drain nudge</text>
<text xml:space="preserve" text-anchor="middle" x="286.12" y="-520.25" font-family="Helvetica,sans-Serif" font-size="10.00">to session pane (pid match)</text>
</g>
<!-- route&#45;&gt;push -->
<g id="edge2" class="edge">
<title>route&#45;&gt;push</title>
<path fill="none" stroke="black" d="M286.12,-584.56C286.12,-576.98 286.12,-567.85 286.12,-559.29"/>
<polygon fill="black" stroke="black" points="289.63,-559.29 286.13,-549.29 282.63,-559.29 289.63,-559.29"/>
</g>
<!-- busy -->
<g id="node4" class="node">
<title>busy</title>
<path fill="#fffde7" stroke="black" d="M274.61,-471.36C274.61,-471.36 236.55,-460.14 236.55,-460.14 230.8,-458.45 230.8,-455.05 236.55,-453.36 236.55,-453.36 274.61,-442.14 274.61,-442.14 280.37,-440.45 291.88,-440.45 297.64,-442.14 297.64,-442.14 335.7,-453.36 335.7,-453.36 341.45,-455.05 341.45,-458.45 335.7,-460.14 335.7,-460.14 297.64,-471.36 297.64,-471.36 291.88,-473.05 280.37,-473.05 274.61,-471.36"/>
<text xml:space="preserve" text-anchor="middle" x="286.12" y="-452.88" font-family="Helvetica,sans-Serif" font-size="10.00">session idle?</text>
</g>
<!-- push&#45;&gt;busy -->
<g id="edge3" class="edge">
<title>push&#45;&gt;busy</title>
<path fill="none" stroke="black" d="M286.12,-511.56C286.12,-503.98 286.12,-494.85 286.12,-486.29"/>
<polygon fill="black" stroke="black" points="289.63,-486.29 286.13,-476.29 282.63,-486.29 289.63,-486.29"/>
</g>
<!-- drain -->
<g id="node5" class="node">
<title>drain</title>
<path fill="#f5f5f5" stroke="black" d="M190.25,-393C190.25,-393 28,-393 28,-393 22,-393 16,-387 16,-381 16,-381 16,-369 16,-369 16,-363 22,-357 28,-357 28,-357 190.25,-357 190.25,-357 196.25,-357 202.25,-363 202.25,-369 202.25,-369 202.25,-381 202.25,-381 202.25,-387 196.25,-393 190.25,-393"/>
<text xml:space="preserve" text-anchor="middle" x="109.12" y="-376.75" font-family="Helvetica,sans-Serif" font-size="10.00">DRAIN (section A)</text>
<text xml:space="preserve" text-anchor="middle" x="109.12" y="-365.5" font-family="Helvetica,sans-Serif" font-size="10.00">mkdir poll.lock.d · read past read.offset</text>
</g>
<!-- busy&#45;&gt;drain -->
<g id="edge4" class="edge">
<title>busy&#45;&gt;drain</title>
<path fill="none" stroke="black" d="M262.62,-445.16C236.03,-433.18 192,-413.34 157.9,-397.97"/>
<polygon fill="black" stroke="black" points="159.6,-394.9 149.04,-393.98 156.72,-401.28 159.6,-394.9"/>
<text xml:space="preserve" text-anchor="middle" x="242.35" y="-412.2" font-family="Helvetica,sans-Serif" font-size="9.00">yes — drain now</text>
</g>
<!-- wait -->
<g id="node9" class="node">
<title>wait</title>
<path fill="#fef6f5" stroke="black" d="M336.88,-393C336.88,-393 235.38,-393 235.38,-393 229.38,-393 223.38,-387 223.38,-381 223.38,-381 223.38,-369 223.38,-369 223.38,-363 229.38,-357 235.38,-357 235.38,-357 336.88,-357 336.88,-357 342.88,-357 348.88,-363 348.88,-369 348.88,-369 348.88,-381 348.88,-381 348.88,-387 342.88,-393 336.88,-393"/>
<text xml:space="preserve" text-anchor="middle" x="286.12" y="-376.75" font-family="Helvetica,sans-Serif" font-size="10.00">nudge buffers</text>
<text xml:space="preserve" text-anchor="middle" x="286.12" y="-365.5" font-family="Helvetica,sans-Serif" font-size="10.00">(message stays in inbox)</text>
</g>
<!-- busy&#45;&gt;wait -->
<g id="edge5" class="edge">
<title>busy&#45;&gt;wait</title>
<path fill="none" stroke="black" d="M286.12,-438.45C286.12,-428.52 286.12,-415.81 286.12,-404.45"/>
<polygon fill="black" stroke="black" points="289.63,-404.78 286.13,-394.78 282.63,-404.78 289.63,-404.78"/>
<text xml:space="preserve" text-anchor="middle" x="315.38" y="-412.2" font-family="Helvetica,sans-Serif" font-size="9.00">no — mid&#45;task</text>
</g>
<!-- proc -->
<g id="node6" class="node">
<title>proc</title>
<path fill="#f5f5f5" stroke="black" d="M126.25,-291.12C126.25,-291.12 12,-291.12 12,-291.12 6,-291.12 0,-285.12 0,-279.12 0,-279.12 0,-259.88 0,-259.88 0,-253.88 6,-247.88 12,-247.88 12,-247.88 126.25,-247.88 126.25,-247.88 132.25,-247.88 138.25,-253.88 138.25,-259.88 138.25,-259.88 138.25,-279.12 138.25,-279.12 138.25,-285.12 132.25,-291.12 126.25,-291.12"/>
<text xml:space="preserve" text-anchor="middle" x="69.12" y="-277.62" font-family="Helvetica,sans-Serif" font-size="10.00">process each line</text>
<text xml:space="preserve" text-anchor="middle" x="69.12" y="-266.38" font-family="Helvetica,sans-Serif" font-size="10.00">full context · tools · memory</text>
<text xml:space="preserve" text-anchor="middle" x="69.12" y="-255.12" font-family="Helvetica,sans-Serif" font-size="10.00">(image_path → Read first)</text>
</g>
<!-- drain&#45;&gt;proc -->
<g id="edge6" class="edge">
<title>drain&#45;&gt;proc</title>
<path fill="none" stroke="black" d="M102.52,-356.91C96.79,-342.07 88.34,-320.21 81.37,-302.18"/>
<polygon fill="black" stroke="black" points="84.68,-301.03 77.81,-292.97 78.15,-303.56 84.68,-301.03"/>
</g>
<!-- reply -->
<g id="node7" class="node">
<title>reply</title>
<path fill="#e8f0fe" stroke="#1a73e8" d="M116.12,-182C116.12,-182 22.12,-182 22.12,-182 16.12,-182 10.12,-176 10.12,-170 10.12,-170 10.12,-158 10.12,-158 10.12,-152 16.12,-146 22.12,-146 22.12,-146 116.12,-146 116.12,-146 122.12,-146 128.12,-152 128.12,-158 128.12,-158 128.12,-170 128.12,-170 128.12,-176 122.12,-182 116.12,-182"/>
<text xml:space="preserve" text-anchor="middle" x="69.12" y="-160.12" font-family="Helvetica,sans-Serif" font-size="10.00">reply: telegram&#45;send.sh</text>
</g>
<!-- proc&#45;&gt;reply -->
<g id="edge7" class="edge">
<title>proc&#45;&gt;reply</title>
<path fill="none" stroke="black" d="M69.12,-247.56C69.12,-232.01 69.12,-210.62 69.12,-193.51"/>
<polygon fill="black" stroke="black" points="72.63,-193.99 69.13,-183.99 65.63,-193.99 72.63,-193.99"/>
</g>
<!-- offset -->
<g id="node8" class="node">
<title>offset</title>
<path fill="#f5f5f5" stroke="black" d="M100.38,-109C100.38,-109 37.87,-109 37.87,-109 31.87,-109 25.88,-103 25.88,-97 25.88,-97 25.88,-85 25.88,-85 25.88,-79 31.88,-73 37.88,-73 37.88,-73 100.38,-73 100.38,-73 106.38,-73 112.38,-79 112.38,-85 112.38,-85 112.38,-97 112.38,-97 112.38,-103 106.38,-109 100.38,-109"/>
<text xml:space="preserve" text-anchor="middle" x="69.12" y="-92.75" font-family="Helvetica,sans-Serif" font-size="10.00">write read.offset</text>
<text xml:space="preserve" text-anchor="middle" x="69.12" y="-81.5" font-family="Helvetica,sans-Serif" font-size="10.00">rmdir poll.lock.d</text>
</g>
<!-- reply&#45;&gt;offset -->
<g id="edge8" class="edge">
<title>reply&#45;&gt;offset</title>
<path fill="none" stroke="black" d="M69.12,-145.81C69.12,-138.23 69.12,-129.1 69.12,-120.54"/>
<polygon fill="black" stroke="black" points="72.63,-120.54 69.13,-110.54 65.63,-120.54 72.63,-120.54"/>
</g>
<!-- idle -->
<g id="node12" class="node">
<title>idle</title>
<path fill="#e6f4ea" stroke="black" d="M113.5,-36C113.5,-36 24.75,-36 24.75,-36 18.75,-36 12.75,-30 12.75,-24 12.75,-24 12.75,-12 12.75,-12 12.75,-6 18.75,0 24.75,0 24.75,0 113.5,0 113.5,0 119.5,0 125.5,-6 125.5,-12 125.5,-12 125.5,-24 125.5,-24 125.5,-30 119.5,-36 113.5,-36"/>
<text xml:space="preserve" text-anchor="middle" x="69.12" y="-20.5" font-family="Helvetica,sans-Serif" font-size="10.00">inbox drained →</text>
<text xml:space="preserve" text-anchor="middle" x="69.12" y="-7.75" font-family="Helvetica,sans-Serif" font-size="10.00">no nudge, zero tokens</text>
</g>
<!-- offset&#45;&gt;idle -->
<g id="edge9" class="edge">
<title>offset&#45;&gt;idle</title>
<path fill="none" stroke="black" d="M69.12,-72.81C69.12,-65.23 69.12,-56.1 69.12,-47.54"/>
<polygon fill="black" stroke="black" points="72.63,-47.54 69.13,-37.54 65.63,-47.54 72.63,-47.54"/>
</g>
<!-- back -->
<g id="node10" class="node">
<title>back</title>
<path fill="#fef6f5" stroke="black" d="M275.69,-307.6C275.69,-307.6 167.81,-273.15 167.81,-273.15 162.09,-271.33 162.09,-267.67 167.81,-265.85 167.81,-265.85 275.69,-231.4 275.69,-231.4 281.41,-229.58 292.84,-229.58 298.56,-231.4 298.56,-231.4 406.44,-265.85 406.44,-265.85 412.16,-267.67 412.16,-271.33 406.44,-273.15 406.44,-273.15 298.56,-307.6 298.56,-307.6 292.84,-309.42 281.41,-309.42 275.69,-307.6"/>
<text xml:space="preserve" text-anchor="middle" x="287.12" y="-276.88" font-family="Helvetica,sans-Serif" font-size="10.00">context_loop backstop</text>
<text xml:space="preserve" text-anchor="middle" x="287.12" y="-265.62" font-family="Helvetica,sans-Serif" font-size="10.00">inbox undrained past</text>
<text xml:space="preserve" text-anchor="middle" x="287.12" y="-254.38" font-family="Helvetica,sans-Serif" font-size="10.00">backstop_seconds (≤5m)?</text>
</g>
<!-- wait&#45;&gt;back -->
<g id="edge10" class="edge">
<title>wait&#45;&gt;back</title>
<path fill="none" stroke="black" d="M284.93,-356.56C284.6,-350.96 284.29,-344.72 284.12,-339 283.97,-333.42 283.97,-327.58 284.07,-321.77"/>
<polygon fill="black" stroke="black" points="287.56,-322.31 284.35,-312.21 280.56,-322.11 287.56,-322.31"/>
</g>
<!-- back&#45;&gt;wait -->
<g id="edge12" class="edge">
<title>back&#45;&gt;wait</title>
<path fill="none" stroke="black" d="M286.73,-311.31C286.62,-322.72 286.5,-334.88 286.4,-345.42"/>
<polygon fill="black" stroke="black" points="282.9,-345.36 286.3,-355.4 289.9,-345.43 282.9,-345.36"/>
<text xml:space="preserve" text-anchor="middle" x="300.04" y="-330.45" font-family="Helvetica,sans-Serif" font-size="9.00">not yet</text>
</g>
<!-- renudge -->
<g id="node11" class="node">
<title>renudge</title>
<path fill="#fef6f5" stroke="black" d="M432.88,-182C432.88,-182 301.38,-182 301.38,-182 295.38,-182 289.38,-176 289.38,-170 289.38,-170 289.38,-158 289.38,-158 289.38,-152 295.38,-146 301.38,-146 301.38,-146 432.88,-146 432.88,-146 438.88,-146 444.88,-152 444.88,-158 444.88,-158 444.88,-170 444.88,-170 444.88,-176 438.88,-182 432.88,-182"/>
<text xml:space="preserve" text-anchor="middle" x="367.12" y="-165.75" font-family="Helvetica,sans-Serif" font-size="10.00">re&#45;nudge</text>
<text xml:space="preserve" text-anchor="middle" x="367.12" y="-154.5" font-family="Helvetica,sans-Serif" font-size="10.00">(throttled; only while non&#45;empty)</text>
</g>
<!-- back&#45;&gt;renudge -->
<g id="edge11" class="edge">
<title>back&#45;&gt;renudge</title>
<path fill="none" stroke="black" d="M312.66,-235.47C323.73,-221.14 336.51,-204.61 346.91,-191.16"/>
<polygon fill="black" stroke="black" points="349.4,-193.65 352.75,-183.6 343.86,-189.37 349.4,-193.65"/>
<text xml:space="preserve" text-anchor="middle" x="346.09" y="-201.2" font-family="Helvetica,sans-Serif" font-size="9.00">yes</text>
</g>
<!-- renudge&#45;&gt;busy -->
<g id="edge13" class="edge">
<title>renudge&#45;&gt;busy</title>
<path fill="none" stroke="black" d="M391.12,-182.42C404.47,-193.67 419.83,-209.56 427.12,-227.75 440.94,-262.19 438.43,-275.9 427.12,-311.25 408.93,-368.16 393.67,-380.93 349.12,-420.75 340.61,-428.36 330.16,-435 320.23,-440.38"/>
<polygon fill="black" stroke="black" points="318.83,-437.17 311.53,-444.84 322.02,-443.4 318.83,-437.17"/>
<text xml:space="preserve" text-anchor="middle" x="450.89" y="-330.45" font-family="Helvetica,sans-Serif" font-size="9.00">retry when idle</text>
</g>
</g>
</svg>
