<?xml version="1.0" encoding="UTF-8" standalone="no"?>
<!DOCTYPE svg PUBLIC "-//W3C//DTD SVG 1.1//EN"
 "http://www.w3.org/Graphics/SVG/1.1/DTD/svg11.dtd">
<!-- Generated by graphviz version 15.0.0 (20260523.1842)
 -->
<!-- Title: permission_approval Pages: 1 -->
<svg width="815pt" height="849pt"
 viewBox="0.00 0.00 815.00 849.00" xmlns="http://www.w3.org/2000/svg" xmlns:xlink="http://www.w3.org/1999/xlink">
<g id="graph0" class="graph" transform="scale(1 1) rotate(0) translate(4 845)">
<title>permission_approval</title>
<polygon fill="white" stroke="none" points="-4,4 -4,-845 810.62,-845 810.62,4 -4,4"/>
<!-- tool -->
<g id="node1" class="node">
<title>tool</title>
<path fill="#f5f5f5" stroke="black" d="M182.12,-841C182.12,-841 106.12,-841 106.12,-841 100.12,-841 94.12,-835 94.12,-829 94.12,-829 94.12,-817 94.12,-817 94.12,-811 100.12,-805 106.12,-805 106.12,-805 182.12,-805 182.12,-805 188.12,-805 194.12,-811 194.12,-817 194.12,-817 194.12,-829 194.12,-829 194.12,-835 188.12,-841 182.12,-841"/>
<text xml:space="preserve" text-anchor="middle" x="144.12" y="-819.12" font-family="Helvetica,sans-Serif" font-size="10.00">session calls a tool</text>
</g>
<!-- hook -->
<g id="node2" class="node">
<title>hook</title>
<path fill="#fffde7" stroke="black" d="M276.25,-768C276.25,-768 12,-768 12,-768 6,-768 0,-762 0,-756 0,-756 0,-744 0,-744 0,-738 6,-732 12,-732 12,-732 276.25,-732 276.25,-732 282.25,-732 288.25,-738 288.25,-744 288.25,-744 288.25,-756 288.25,-756 288.25,-762 282.25,-768 276.25,-768"/>
<text xml:space="preserve" text-anchor="middle" x="144.12" y="-751.75" font-family="Helvetica,sans-Serif" font-size="10.00">PreToolUse: telegram&#45;permission&#45;hook.py</text>
<text xml:space="preserve" text-anchor="middle" x="144.12" y="-740.5" font-family="Helvetica,sans-Serif" font-size="10.00">(settings.json; matcher Write|Edit|NotebookEdit|Bash|mcp__.*)</text>
</g>
<!-- tool&#45;&gt;hook -->
<g id="edge1" class="edge">
<title>tool&#45;&gt;hook</title>
<path fill="none" stroke="black" d="M144.12,-804.81C144.12,-797.23 144.12,-788.1 144.12,-779.54"/>
<polygon fill="black" stroke="black" points="147.63,-779.54 144.13,-769.54 140.63,-779.54 147.63,-779.54"/>
</g>
<!-- bridge -->
<g id="node3" class="node">
<title>bridge</title>
<path fill="#fffde7" stroke="black" d="M132.51,-691.98C132.51,-691.98 38.49,-667.52 38.49,-667.52 32.68,-666.01 32.68,-662.99 38.49,-661.48 38.49,-661.48 132.51,-637.02 132.51,-637.02 138.32,-635.51 149.93,-635.51 155.74,-637.02 155.74,-637.02 249.76,-661.48 249.76,-661.48 255.57,-662.99 255.57,-666.01 249.76,-667.52 249.76,-667.52 155.74,-691.98 155.74,-691.98 149.93,-693.49 138.32,-693.49 132.51,-691.98"/>
<text xml:space="preserve" text-anchor="middle" x="144.12" y="-666.25" font-family="Helvetica,sans-Serif" font-size="10.00">bridge session?</text>
<text xml:space="preserve" text-anchor="middle" x="144.12" y="-655" font-family="Helvetica,sans-Serif" font-size="10.00">(topic resolves by cwd)</text>
</g>
<!-- hook&#45;&gt;bridge -->
<g id="edge2" class="edge">
<title>hook&#45;&gt;bridge</title>
<path fill="none" stroke="black" d="M144.12,-731.7C144.12,-724.39 144.12,-715.54 144.12,-706.72"/>
<polygon fill="black" stroke="black" points="147.63,-706.79 144.13,-696.79 140.63,-706.79 147.63,-706.79"/>
</g>
<!-- noop -->
<g id="node4" class="node">
<title>noop</title>
<path fill="#e6f4ea" stroke="black" d="M193.62,-564.5C193.62,-564.5 60.62,-564.5 60.62,-564.5 54.62,-564.5 48.62,-558.5 48.62,-552.5 48.62,-552.5 48.62,-540.5 48.62,-540.5 48.62,-534.5 54.62,-528.5 60.62,-528.5 60.62,-528.5 193.62,-528.5 193.62,-528.5 199.62,-528.5 205.62,-534.5 205.62,-540.5 205.62,-540.5 205.62,-552.5 205.62,-552.5 205.62,-558.5 199.62,-564.5 193.62,-564.5"/>
<text xml:space="preserve" text-anchor="middle" x="127.12" y="-548.25" font-family="Helvetica,sans-Serif" font-size="10.00">abstain: instant exit 0</text>
<text xml:space="preserve" text-anchor="middle" x="127.12" y="-537" font-family="Helvetica,sans-Serif" font-size="10.00">(non&#45;bridge sessions untouched)</text>
</g>
<!-- bridge&#45;&gt;noop -->
<g id="edge3" class="edge">
<title>bridge&#45;&gt;noop</title>
<path fill="none" stroke="black" d="M139.92,-634.83C137.29,-616.86 133.91,-593.8 131.29,-575.89"/>
<polygon fill="black" stroke="black" points="134.78,-575.59 129.87,-566.2 127.85,-576.6 134.78,-575.59"/>
<text xml:space="preserve" text-anchor="middle" x="142.4" y="-607.45" font-family="Helvetica,sans-Serif" font-size="9.00">no</text>
</g>
<!-- gated -->
<g id="node5" class="node">
<title>gated</title>
<path fill="#fffde7" stroke="black" d="M381.48,-585.37C381.48,-585.37 235.77,-549.38 235.77,-549.38 229.95,-547.94 229.95,-545.06 235.77,-543.62 235.77,-543.62 381.48,-507.63 381.48,-507.63 387.3,-506.19 398.95,-506.19 404.77,-507.63 404.77,-507.63 550.48,-543.62 550.48,-543.62 556.3,-545.06 556.3,-547.94 550.48,-549.38 550.48,-549.38 404.77,-585.37 404.77,-585.37 398.95,-586.81 387.3,-586.81 381.48,-585.37"/>
<text xml:space="preserve" text-anchor="middle" x="393.12" y="-553.88" font-family="Helvetica,sans-Serif" font-size="10.00">dangerous?</text>
<text xml:space="preserve" text-anchor="middle" x="393.12" y="-542.62" font-family="Helvetica,sans-Serif" font-size="10.00">Write / Edit / NotebookEdit,</text>
<text xml:space="preserve" text-anchor="middle" x="393.12" y="-531.38" font-family="Helvetica,sans-Serif" font-size="10.00">risky Bash, non&#45;allowlisted mcp__*</text>
</g>
<!-- bridge&#45;&gt;gated -->
<g id="edge4" class="edge">
<title>bridge&#45;&gt;gated</title>
<path fill="none" stroke="black" d="M185.24,-644.34C223.3,-626.61 280.6,-599.92 325.41,-579.04"/>
<polygon fill="black" stroke="black" points="326.68,-582.31 334.27,-574.92 323.73,-575.97 326.68,-582.31"/>
<text xml:space="preserve" text-anchor="middle" x="268.28" y="-607.45" font-family="Helvetica,sans-Serif" font-size="9.00">yes</text>
</g>
<!-- floor -->
<g id="node6" class="node">
<title>floor</title>
<path fill="#e6f4ea" stroke="black" d="M410.12,-446.5C410.12,-446.5 244.12,-446.5 244.12,-446.5 238.12,-446.5 232.12,-440.5 232.12,-434.5 232.12,-434.5 232.12,-422.5 232.12,-422.5 232.12,-416.5 238.12,-410.5 244.12,-410.5 244.12,-410.5 410.12,-410.5 410.12,-410.5 416.12,-410.5 422.12,-416.5 422.12,-422.5 422.12,-422.5 422.12,-434.5 422.12,-434.5 422.12,-440.5 416.12,-446.5 410.12,-446.5"/>
<text xml:space="preserve" text-anchor="middle" x="327.12" y="-431" font-family="Helvetica,sans-Serif" font-size="10.00">abstain → engine floor</text>
<text xml:space="preserve" text-anchor="middle" x="327.12" y="-418.25" font-family="Helvetica,sans-Serif" font-size="10.00">(safe Bash, reads, allowlisted MCP run)</text>
</g>
<!-- gated&#45;&gt;floor -->
<g id="edge5" class="edge">
<title>gated&#45;&gt;floor</title>
<path fill="none" stroke="black" d="M372.6,-509.43C362.86,-492.3 351.41,-472.18 342.43,-456.41"/>
<polygon fill="black" stroke="black" points="345.67,-455.02 337.69,-448.06 339.59,-458.48 345.67,-455.02"/>
<text xml:space="preserve" text-anchor="middle" x="363.4" y="-478.2" font-family="Helvetica,sans-Serif" font-size="9.00">no</text>
</g>
<!-- persisted -->
<g id="node7" class="node">
<title>persisted</title>
<path fill="#fffde7" stroke="black" d="M543.53,-455.92C543.53,-455.92 451.72,-431.58 451.72,-431.58 445.92,-430.04 445.92,-426.96 451.72,-425.42 451.72,-425.42 543.53,-401.08 543.53,-401.08 549.33,-399.54 560.92,-399.54 566.72,-401.08 566.72,-401.08 658.53,-425.42 658.53,-425.42 664.33,-426.96 664.33,-430.04 658.53,-431.58 658.53,-431.58 566.72,-455.92 566.72,-455.92 560.92,-457.46 549.33,-457.46 543.53,-455.92"/>
<text xml:space="preserve" text-anchor="middle" x="555.12" y="-430.25" font-family="Helvetica,sans-Serif" font-size="10.00">covered by a persisted</text>
<text xml:space="preserve" text-anchor="middle" x="555.12" y="-419" font-family="Helvetica,sans-Serif" font-size="10.00">always&#45;allow rule?</text>
</g>
<!-- gated&#45;&gt;persisted -->
<g id="edge6" class="edge">
<title>gated&#45;&gt;persisted</title>
<path fill="none" stroke="black" d="M435.69,-515.02C460.35,-497.36 491.2,-475.27 515.37,-457.97"/>
<polygon fill="black" stroke="black" points="517.29,-460.9 523.38,-452.23 513.21,-455.21 517.29,-460.9"/>
<text xml:space="preserve" text-anchor="middle" x="495.76" y="-478.2" font-family="Helvetica,sans-Serif" font-size="9.00">yes</text>
</g>
<!-- allowrule -->
<g id="node8" class="node">
<title>allowrule</title>
<path fill="#e6f4ea" stroke="black" d="M543.88,-349.38C543.88,-349.38 466.38,-349.38 466.38,-349.38 460.38,-349.38 454.38,-343.38 454.38,-337.38 454.38,-337.38 454.38,-325.38 454.38,-325.38 454.38,-319.38 460.38,-313.38 466.38,-313.38 466.38,-313.38 543.88,-313.38 543.88,-313.38 549.88,-313.38 555.88,-319.38 555.88,-325.38 555.88,-325.38 555.88,-337.38 555.88,-337.38 555.88,-343.38 549.88,-349.38 543.88,-349.38"/>
<text xml:space="preserve" text-anchor="middle" x="505.12" y="-327.5" font-family="Helvetica,sans-Serif" font-size="10.00">allow (no round&#45;trip)</text>
</g>
<!-- persisted&#45;&gt;allowrule -->
<g id="edge7" class="edge">
<title>persisted&#45;&gt;allowrule</title>
<path fill="none" stroke="black" d="M541.33,-401.25C534.53,-388.32 526.34,-372.74 519.47,-359.67"/>
<polygon fill="black" stroke="black" points="522.75,-358.39 515,-351.17 516.56,-361.65 522.75,-358.39"/>
<text xml:space="preserve" text-anchor="middle" x="537.25" y="-371.45" font-family="Helvetica,sans-Serif" font-size="9.00">yes</text>
</g>
<!-- post -->
<g id="node9" class="node">
<title>post</title>
<path fill="#e8f0fe" stroke="#1a73e8" d="M748.62,-352.25C748.62,-352.25 585.62,-352.25 585.62,-352.25 579.62,-352.25 573.62,-346.25 573.62,-340.25 573.62,-340.25 573.62,-322.5 573.62,-322.5 573.62,-316.5 579.62,-310.5 585.62,-310.5 585.62,-310.5 748.62,-310.5 748.62,-310.5 754.62,-310.5 760.62,-316.5 760.62,-322.5 760.62,-322.5 760.62,-340.25 760.62,-340.25 760.62,-346.25 754.62,-352.25 748.62,-352.25"/>
<text xml:space="preserve" text-anchor="middle" x="667.12" y="-338.75" font-family="Helvetica,sans-Serif" font-size="10.00">post preview to topic — buttons:</text>
<text xml:space="preserve" text-anchor="middle" x="667.12" y="-327.5" font-family="Helvetica,sans-Serif" font-size="10.00">Approve · Always allow · Approve+note</text>
<text xml:space="preserve" text-anchor="middle" x="667.12" y="-316.25" font-family="Helvetica,sans-Serif" font-size="10.00">Deny · Deny+redirect</text>
</g>
<!-- persisted&#45;&gt;post -->
<g id="edge8" class="edge">
<title>persisted&#45;&gt;post</title>
<path fill="none" stroke="black" d="M581.95,-404.72C597.82,-391.24 618.03,-374.07 634.78,-359.85"/>
<polygon fill="black" stroke="black" points="636.67,-362.83 642.03,-353.69 632.14,-357.49 636.67,-362.83"/>
<text xml:space="preserve" text-anchor="middle" x="626.41" y="-371.45" font-family="Helvetica,sans-Serif" font-size="9.00">no</text>
</g>
<!-- block -->
<g id="node10" class="node">
<title>block</title>
<path fill="#f5f5f5" stroke="black" d="M741.88,-273.5C741.88,-273.5 592.38,-273.5 592.38,-273.5 586.38,-273.5 580.38,-267.5 580.38,-261.5 580.38,-261.5 580.38,-249.5 580.38,-249.5 580.38,-243.5 586.38,-237.5 592.38,-237.5 592.38,-237.5 741.88,-237.5 741.88,-237.5 747.88,-237.5 753.88,-243.5 753.88,-249.5 753.88,-249.5 753.88,-261.5 753.88,-261.5 753.88,-267.5 747.88,-273.5 741.88,-273.5"/>
<text xml:space="preserve" text-anchor="middle" x="667.12" y="-257.25" font-family="Helvetica,sans-Serif" font-size="10.00">hook BLOCKS on perm&#45;answer.json</text>
<text xml:space="preserve" text-anchor="middle" x="667.12" y="-246" font-family="Helvetica,sans-Serif" font-size="10.00">(auto&#45;deny after ~28 min)</text>
</g>
<!-- post&#45;&gt;block -->
<g id="edge9" class="edge">
<title>post&#45;&gt;block</title>
<path fill="none" stroke="black" d="M667.12,-310.19C667.12,-302.41 667.12,-293.37 667.12,-284.95"/>
<polygon fill="black" stroke="black" points="670.63,-285.17 667.13,-275.17 663.63,-285.17 670.63,-285.17"/>
</g>
<!-- answer -->
<g id="node11" class="node">
<title>answer</title>
<path fill="#f5f5f5" stroke="black" d="M734.75,-200.5C734.75,-200.5 599.5,-200.5 599.5,-200.5 593.5,-200.5 587.5,-194.5 587.5,-188.5 587.5,-188.5 587.5,-176.5 587.5,-176.5 587.5,-170.5 593.5,-164.5 599.5,-164.5 599.5,-164.5 734.75,-164.5 734.75,-164.5 740.75,-164.5 746.75,-170.5 746.75,-176.5 746.75,-176.5 746.75,-188.5 746.75,-188.5 746.75,-194.5 740.75,-200.5 734.75,-200.5"/>
<text xml:space="preserve" text-anchor="middle" x="667.12" y="-185" font-family="Helvetica,sans-Serif" font-size="10.00">you tap / type; router writes</text>
<text xml:space="preserve" text-anchor="middle" x="667.12" y="-173.75" font-family="Helvetica,sans-Serif" font-size="10.00">perm&#45;answer.json (note → inbox)</text>
</g>
<!-- block&#45;&gt;answer -->
<g id="edge10" class="edge">
<title>block&#45;&gt;answer</title>
<path fill="none" stroke="black" d="M667.12,-237.31C667.12,-229.73 667.12,-220.6 667.12,-212.04"/>
<polygon fill="black" stroke="black" points="670.63,-212.04 667.13,-202.04 663.63,-212.04 670.63,-212.04"/>
</g>
<!-- decide -->
<g id="node12" class="node">
<title>decide</title>
<path fill="#fffde7" stroke="black" d="M656.04,-122.91C656.04,-122.91 634.7,-114.09 634.7,-114.09 629.16,-111.79 629.16,-107.21 634.7,-104.91 634.7,-104.91 656.04,-96.09 656.04,-96.09 661.58,-93.79 672.67,-93.79 678.21,-96.09 678.21,-96.09 699.55,-104.91 699.55,-104.91 705.09,-107.21 705.09,-111.79 699.55,-114.09 699.55,-114.09 678.21,-122.91 678.21,-122.91 672.67,-125.21 661.58,-125.21 656.04,-122.91"/>
<text xml:space="preserve" text-anchor="middle" x="667.12" y="-105.62" font-family="Helvetica,sans-Serif" font-size="10.00">decision</text>
</g>
<!-- answer&#45;&gt;decide -->
<g id="edge11" class="edge">
<title>answer&#45;&gt;decide</title>
<path fill="none" stroke="black" d="M667.12,-164.31C667.12,-156.84 667.12,-147.87 667.12,-139.42"/>
<polygon fill="black" stroke="black" points="670.63,-139.54 667.13,-129.54 663.63,-139.54 670.63,-139.54"/>
</g>
<!-- allow -->
<g id="node13" class="node">
<title>allow</title>
<path fill="#e6f4ea" stroke="black" d="M661.25,-36C661.25,-36 511,-36 511,-36 505,-36 499,-30 499,-24 499,-24 499,-12 499,-12 499,-6 505,0 511,0 511,0 661.25,0 661.25,0 667.25,0 673.25,-6 673.25,-12 673.25,-12 673.25,-24 673.25,-24 673.25,-30 667.25,-36 661.25,-36"/>
<text xml:space="preserve" text-anchor="middle" x="586.12" y="-20.5" font-family="Helvetica,sans-Serif" font-size="10.00">allow → tool runs</text>
<text xml:space="preserve" text-anchor="middle" x="586.12" y="-7.75" font-family="Helvetica,sans-Serif" font-size="10.00">(Always allow: persist a narrow rule)</text>
</g>
<!-- decide&#45;&gt;allow -->
<g id="edge12" class="edge">
<title>decide&#45;&gt;allow</title>
<path fill="none" stroke="black" d="M655.86,-96.06C643.87,-82.8 624.55,-61.46 609.28,-44.59"/>
<polygon fill="black" stroke="black" points="612.05,-42.43 602.75,-37.37 606.86,-47.13 612.05,-42.43"/>
<text xml:space="preserve" text-anchor="middle" x="660.13" y="-64.95" font-family="Helvetica,sans-Serif" font-size="9.00">approve /</text>
<text xml:space="preserve" text-anchor="middle" x="660.13" y="-55.2" font-family="Helvetica,sans-Serif" font-size="9.00">always allow</text>
</g>
<!-- deny -->
<g id="node14" class="node">
<title>deny</title>
<path fill="#ffe0e0" stroke="black" d="M794.62,-36C794.62,-36 703.62,-36 703.62,-36 697.62,-36 691.62,-30 691.62,-24 691.62,-24 691.62,-12 691.62,-12 691.62,-6 697.62,0 703.62,0 703.62,0 794.62,0 794.62,0 800.62,0 806.62,-6 806.62,-12 806.62,-12 806.62,-24 806.62,-24 806.62,-30 800.62,-36 794.62,-36"/>
<text xml:space="preserve" text-anchor="middle" x="749.12" y="-21.25" font-family="Helvetica,sans-Serif" font-size="10.00">deny → tool blocked</text>
<text xml:space="preserve" text-anchor="middle" x="749.12" y="-8.5" font-family="Helvetica,sans-Serif" font-size="10.00">(redirect note → inbox)</text>
</g>
<!-- decide&#45;&gt;deny -->
<g id="edge13" class="edge">
<title>decide&#45;&gt;deny</title>
<path fill="none" stroke="black" d="M678.53,-96.06C690.67,-82.8 710.23,-61.46 725.68,-44.59"/>
<polygon fill="black" stroke="black" points="728.13,-47.1 732.3,-37.36 722.97,-42.37 728.13,-47.1"/>
<text xml:space="preserve" text-anchor="middle" x="743.97" y="-60.08" font-family="Helvetica,sans-Serif" font-size="9.00">deny / timeout</text>
</g>
</g>
</svg>
