<?xml version="1.0" encoding="UTF-8" standalone="no"?>
<!DOCTYPE svg PUBLIC "-//W3C//DTD SVG 1.1//EN"
 "http://www.w3.org/Graphics/SVG/1.1/DTD/svg11.dtd">
<!-- Generated by graphviz version 15.0.0 (20260523.1842)
 -->
<!-- Title: permission_approval Pages: 1 -->
<svg width="440pt" height="831pt"
 viewBox="0.00 0.00 440.00 831.00" xmlns="http://www.w3.org/2000/svg" xmlns:xlink="http://www.w3.org/1999/xlink">
<g id="graph0" class="graph" transform="scale(1 1) rotate(0) translate(4 827)">
<title>permission_approval</title>
<polygon fill="white" stroke="none" points="-4,4 -4,-827 435.62,-827 435.62,4 -4,4"/>
<!-- tool -->
<g id="node1" class="node">
<title>tool</title>
<path fill="#f5f5f5" stroke="black" d="M326.12,-823C326.12,-823 157.88,-823 157.88,-823 151.88,-823 145.88,-817 145.88,-811 145.88,-811 145.88,-793.25 145.88,-793.25 145.88,-787.25 151.88,-781.25 157.88,-781.25 157.88,-781.25 326.12,-781.25 326.12,-781.25 332.12,-781.25 338.12,-787.25 338.12,-793.25 338.12,-793.25 338.12,-811 338.12,-811 338.12,-817 332.12,-823 326.12,-823"/>
<text xml:space="preserve" text-anchor="middle" x="242" y="-809.5" font-family="Helvetica,sans-Serif" font-size="10.00">spawned session calls a gated tool</text>
<text xml:space="preserve" text-anchor="middle" x="242" y="-798.25" font-family="Helvetica,sans-Serif" font-size="10.00">Write / Edit / NotebookEdit / WebFetch /</text>
<text xml:space="preserve" text-anchor="middle" x="242" y="-787" font-family="Helvetica,sans-Serif" font-size="10.00">non&#45;allowlisted mcp__*</text>
</g>
<!-- hook -->
<g id="node2" class="node">
<title>hook</title>
<path fill="#fffde7" stroke="black" d="M343.75,-744.25C343.75,-744.25 140.25,-744.25 140.25,-744.25 134.25,-744.25 128.25,-738.25 128.25,-732.25 128.25,-732.25 128.25,-720.25 128.25,-720.25 128.25,-714.25 134.25,-708.25 140.25,-708.25 140.25,-708.25 343.75,-708.25 343.75,-708.25 349.75,-708.25 355.75,-714.25 355.75,-720.25 355.75,-720.25 355.75,-732.25 355.75,-732.25 355.75,-738.25 349.75,-744.25 343.75,-744.25"/>
<text xml:space="preserve" text-anchor="middle" x="242" y="-728" font-family="Helvetica,sans-Serif" font-size="10.00">PreToolUse: telegram&#45;permission&#45;hook.py</text>
<text xml:space="preserve" text-anchor="middle" x="242" y="-716.75" font-family="Helvetica,sans-Serif" font-size="10.00">(gated on TELEGRAM_BRIDGE_SPAWNED=1)</text>
</g>
<!-- tool&#45;&gt;hook -->
<g id="edge1" class="edge">
<title>tool&#45;&gt;hook</title>
<path fill="none" stroke="black" d="M242,-780.94C242,-773.16 242,-764.12 242,-755.7"/>
<polygon fill="black" stroke="black" points="245.5,-755.92 242,-745.92 238.5,-755.92 245.5,-755.92"/>
</g>
<!-- spawned -->
<g id="node3" class="node">
<title>spawned</title>
<path fill="#fffde7" stroke="black" d="M230.28,-668.65C230.28,-668.65 172.55,-655.85 172.55,-655.85 166.69,-654.55 166.69,-651.95 172.55,-650.65 172.55,-650.65 230.28,-637.85 230.28,-637.85 236.14,-636.55 247.86,-636.55 253.72,-637.85 253.72,-637.85 311.45,-650.65 311.45,-650.65 317.31,-651.95 317.31,-654.55 311.45,-655.85 311.45,-655.85 253.72,-668.65 253.72,-668.65 247.86,-669.95 236.14,-669.95 230.28,-668.65"/>
<text xml:space="preserve" text-anchor="middle" x="242" y="-649.38" font-family="Helvetica,sans-Serif" font-size="10.00">spawned session?</text>
</g>
<!-- hook&#45;&gt;spawned -->
<g id="edge2" class="edge">
<title>hook&#45;&gt;spawned</title>
<path fill="none" stroke="black" d="M242,-708.06C242,-700.48 242,-691.35 242,-682.79"/>
<polygon fill="black" stroke="black" points="245.5,-682.79 242,-672.79 238.5,-682.79 245.5,-682.79"/>
</g>
<!-- allowl -->
<g id="node4" class="node">
<title>allowl</title>
<path fill="#fffde7" stroke="black" d="M118.32,-586.76C118.32,-586.76 11.68,-561.74 11.68,-561.74 5.84,-560.37 5.84,-557.63 11.68,-556.26 11.68,-556.26 118.32,-531.24 118.32,-531.24 124.16,-529.87 135.84,-529.87 141.68,-531.24 141.68,-531.24 248.32,-556.26 248.32,-556.26 254.16,-557.63 254.16,-560.37 248.32,-561.74 248.32,-561.74 141.68,-586.76 141.68,-586.76 135.84,-588.13 124.16,-588.13 118.32,-586.76"/>
<text xml:space="preserve" text-anchor="middle" x="130" y="-560.75" font-family="Helvetica,sans-Serif" font-size="10.00">MCP tool allowlisted in</text>
<text xml:space="preserve" text-anchor="middle" x="130" y="-549.5" font-family="Helvetica,sans-Serif" font-size="10.00">settings.json / .local.json?</text>
</g>
<!-- spawned&#45;&gt;allowl -->
<g id="edge4" class="edge">
<title>spawned&#45;&gt;allowl</title>
<path fill="none" stroke="black" d="M225.47,-638.64C210.17,-626.03 186.87,-606.84 167.11,-590.57"/>
<polygon fill="black" stroke="black" points="169.44,-587.95 159.5,-584.3 164.99,-593.36 169.44,-587.95"/>
<text xml:space="preserve" text-anchor="middle" x="206.45" y="-608.7" font-family="Helvetica,sans-Serif" font-size="9.00">yes</text>
</g>
<!-- noop -->
<g id="node5" class="node">
<title>noop</title>
<path fill="#e6f4ea" stroke="black" d="M419.62,-577C419.62,-577 290.38,-577 290.38,-577 284.38,-577 278.38,-571 278.38,-565 278.38,-565 278.38,-553 278.38,-553 278.38,-547 284.38,-541 290.38,-541 290.38,-541 419.62,-541 419.62,-541 425.62,-541 431.62,-547 431.62,-553 431.62,-553 431.62,-565 431.62,-565 431.62,-571 425.62,-577 419.62,-577"/>
<text xml:space="preserve" text-anchor="middle" x="355" y="-560.75" font-family="Helvetica,sans-Serif" font-size="10.00">no&#45;op: instant exit 0</text>
<text xml:space="preserve" text-anchor="middle" x="355" y="-549.5" font-family="Helvetica,sans-Serif" font-size="10.00">(normal sessions never prompt)</text>
</g>
<!-- spawned&#45;&gt;noop -->
<g id="edge3" class="edge">
<title>spawned&#45;&gt;noop</title>
<path fill="none" stroke="black" d="M258.67,-638.64C276.08,-624.43 303.74,-601.85 324.97,-584.52"/>
<polygon fill="black" stroke="black" points="326.92,-587.45 332.45,-578.41 322.49,-582.02 326.92,-587.45"/>
<text xml:space="preserve" text-anchor="middle" x="300.36" y="-608.7" font-family="Helvetica,sans-Serif" font-size="9.00">no</text>
</g>
<!-- autoallow -->
<g id="node6" class="node">
<title>autoallow</title>
<path fill="#e6f4ea" stroke="black" d="M159.75,-482.75C159.75,-482.75 64.25,-482.75 64.25,-482.75 58.25,-482.75 52.25,-476.75 52.25,-470.75 52.25,-470.75 52.25,-458.75 52.25,-458.75 52.25,-452.75 58.25,-446.75 64.25,-446.75 64.25,-446.75 159.75,-446.75 159.75,-446.75 165.75,-446.75 171.75,-452.75 171.75,-458.75 171.75,-458.75 171.75,-470.75 171.75,-470.75 171.75,-476.75 165.75,-482.75 159.75,-482.75"/>
<text xml:space="preserve" text-anchor="middle" x="112" y="-466.5" font-family="Helvetica,sans-Serif" font-size="10.00">hook returns allow itself</text>
<text xml:space="preserve" text-anchor="middle" x="112" y="-455.25" font-family="Helvetica,sans-Serif" font-size="10.00">(skips native prompt)</text>
</g>
<!-- allowl&#45;&gt;autoallow -->
<g id="edge5" class="edge">
<title>allowl&#45;&gt;autoallow</title>
<path fill="none" stroke="black" d="M124.4,-529.32C122.24,-518.21 119.76,-505.52 117.59,-494.41"/>
<polygon fill="black" stroke="black" points="121.03,-493.76 115.68,-484.62 114.16,-495.1 121.03,-493.76"/>
<text xml:space="preserve" text-anchor="middle" x="127.59" y="-501.95" font-family="Helvetica,sans-Serif" font-size="9.00">yes</text>
</g>
<!-- post -->
<g id="node7" class="node">
<title>post</title>
<path fill="#e8f0fe" stroke="#1a73e8" d="M317.88,-482.75C317.88,-482.75 202.12,-482.75 202.12,-482.75 196.12,-482.75 190.12,-476.75 190.12,-470.75 190.12,-470.75 190.12,-458.75 190.12,-458.75 190.12,-452.75 196.12,-446.75 202.12,-446.75 202.12,-446.75 317.88,-446.75 317.88,-446.75 323.88,-446.75 329.88,-452.75 329.88,-458.75 329.88,-458.75 329.88,-470.75 329.88,-470.75 329.88,-476.75 323.88,-482.75 317.88,-482.75"/>
<text xml:space="preserve" text-anchor="middle" x="260" y="-466.5" font-family="Helvetica,sans-Serif" font-size="10.00">post preview to topic</text>
<text xml:space="preserve" text-anchor="middle" x="260" y="-455.25" font-family="Helvetica,sans-Serif" font-size="10.00">with Approve / Deny buttons</text>
</g>
<!-- allowl&#45;&gt;post -->
<g id="edge6" class="edge">
<title>allowl&#45;&gt;post</title>
<path fill="none" stroke="black" d="M161.47,-535.67C181.1,-521.74 206.35,-503.82 226.38,-489.61"/>
<polygon fill="black" stroke="black" points="228.37,-492.48 234.5,-483.84 224.32,-486.78 228.37,-492.48"/>
<text xml:space="preserve" text-anchor="middle" x="215.72" y="-501.95" font-family="Helvetica,sans-Serif" font-size="9.00">no</text>
</g>
<!-- block -->
<g id="node8" class="node">
<title>block</title>
<path fill="#f5f5f5" stroke="black" d="M303.62,-409.75C303.62,-409.75 216.38,-409.75 216.38,-409.75 210.38,-409.75 204.38,-403.75 204.38,-397.75 204.38,-397.75 204.38,-385.75 204.38,-385.75 204.38,-379.75 210.38,-373.75 216.38,-373.75 216.38,-373.75 303.62,-373.75 303.62,-373.75 309.62,-373.75 315.62,-379.75 315.62,-385.75 315.62,-385.75 315.62,-397.75 315.62,-397.75 315.62,-403.75 309.62,-409.75 303.62,-409.75"/>
<text xml:space="preserve" text-anchor="middle" x="260" y="-393.5" font-family="Helvetica,sans-Serif" font-size="10.00">hook BLOCKS</text>
<text xml:space="preserve" text-anchor="middle" x="260" y="-382.25" font-family="Helvetica,sans-Serif" font-size="10.00">(auto&#45;deny after 240s)</text>
</g>
<!-- post&#45;&gt;block -->
<g id="edge7" class="edge">
<title>post&#45;&gt;block</title>
<path fill="none" stroke="black" d="M260,-446.56C260,-438.98 260,-429.85 260,-421.29"/>
<polygon fill="black" stroke="black" points="263.5,-421.29 260,-411.29 256.5,-421.29 263.5,-421.29"/>
</g>
<!-- tap -->
<g id="node9" class="node">
<title>tap</title>
<path fill="#f5f5f5" stroke="black" d="M291.25,-336.75C291.25,-336.75 228.75,-336.75 228.75,-336.75 222.75,-336.75 216.75,-330.75 216.75,-324.75 216.75,-324.75 216.75,-312.75 216.75,-312.75 216.75,-306.75 222.75,-300.75 228.75,-300.75 228.75,-300.75 291.25,-300.75 291.25,-300.75 297.25,-300.75 303.25,-306.75 303.25,-312.75 303.25,-312.75 303.25,-324.75 303.25,-324.75 303.25,-330.75 297.25,-336.75 291.25,-336.75"/>
<text xml:space="preserve" text-anchor="middle" x="260" y="-320.5" font-family="Helvetica,sans-Serif" font-size="10.00">you tap a button</text>
<text xml:space="preserve" text-anchor="middle" x="260" y="-309.25" font-family="Helvetica,sans-Serif" font-size="10.00">(or type y / n)</text>
</g>
<!-- block&#45;&gt;tap -->
<g id="edge8" class="edge">
<title>block&#45;&gt;tap</title>
<path fill="none" stroke="black" d="M260,-373.56C260,-365.98 260,-356.85 260,-348.29"/>
<polygon fill="black" stroke="black" points="263.5,-348.29 260,-338.29 256.5,-348.29 263.5,-348.29"/>
</g>
<!-- cb -->
<g id="node10" class="node">
<title>cb</title>
<path fill="#f5f5f5" stroke="black" d="M315.62,-263.75C315.62,-263.75 204.38,-263.75 204.38,-263.75 198.38,-263.75 192.38,-257.75 192.38,-251.75 192.38,-251.75 192.38,-239.75 192.38,-239.75 192.38,-233.75 198.38,-227.75 204.38,-227.75 204.38,-227.75 315.62,-227.75 315.62,-227.75 321.62,-227.75 327.62,-233.75 327.62,-239.75 327.62,-239.75 327.62,-251.75 327.62,-251.75 327.62,-257.75 321.62,-263.75 315.62,-263.75"/>
<text xml:space="preserve" text-anchor="middle" x="260" y="-248.25" font-family="Helvetica,sans-Serif" font-size="10.00">router: callback_query →</text>
<text xml:space="preserve" text-anchor="middle" x="260" y="-235.5" font-family="Helvetica,sans-Serif" font-size="10.00">synthetic y/n line into inbox</text>
</g>
<!-- tap&#45;&gt;cb -->
<g id="edge9" class="edge">
<title>tap&#45;&gt;cb</title>
<path fill="none" stroke="black" d="M260,-300.56C260,-292.98 260,-283.85 260,-275.29"/>
<polygon fill="black" stroke="black" points="263.5,-275.29 260,-265.29 256.5,-275.29 263.5,-275.29"/>
</g>
<!-- consume -->
<g id="node11" class="node">
<title>consume</title>
<path fill="#f5f5f5" stroke="black" d="M307.75,-190.75C307.75,-190.75 212.25,-190.75 212.25,-190.75 206.25,-190.75 200.25,-184.75 200.25,-178.75 200.25,-178.75 200.25,-166.75 200.25,-166.75 200.25,-160.75 206.25,-154.75 212.25,-154.75 212.25,-154.75 307.75,-154.75 307.75,-154.75 313.75,-154.75 319.75,-160.75 319.75,-166.75 319.75,-166.75 319.75,-178.75 319.75,-178.75 319.75,-184.75 313.75,-190.75 307.75,-190.75"/>
<text xml:space="preserve" text-anchor="middle" x="260" y="-174.5" font-family="Helvetica,sans-Serif" font-size="10.00">hook consumes the line</text>
<text xml:space="preserve" text-anchor="middle" x="260" y="-163.25" font-family="Helvetica,sans-Serif" font-size="10.00">(like a typed reply)</text>
</g>
<!-- cb&#45;&gt;consume -->
<g id="edge10" class="edge">
<title>cb&#45;&gt;consume</title>
<path fill="none" stroke="black" d="M260,-227.56C260,-219.98 260,-210.85 260,-202.29"/>
<polygon fill="black" stroke="black" points="263.5,-202.29 260,-192.29 256.5,-202.29 263.5,-202.29"/>
</g>
<!-- decide -->
<g id="node12" class="node">
<title>decide</title>
<path fill="#fffde7" stroke="black" d="M248.68,-113.76C248.68,-113.76 220.27,-103.74 220.27,-103.74 214.61,-101.75 214.61,-97.75 220.27,-95.76 220.27,-95.76 248.68,-85.74 248.68,-85.74 254.34,-83.75 265.66,-83.75 271.32,-85.74 271.32,-85.74 299.73,-95.76 299.73,-95.76 305.39,-97.75 305.39,-101.75 299.73,-103.74 299.73,-103.74 271.32,-113.76 271.32,-113.76 265.66,-115.75 254.34,-115.75 248.68,-113.76"/>
<text xml:space="preserve" text-anchor="middle" x="260" y="-95.88" font-family="Helvetica,sans-Serif" font-size="10.00">approved?</text>
</g>
<!-- consume&#45;&gt;decide -->
<g id="edge11" class="edge">
<title>consume&#45;&gt;decide</title>
<path fill="none" stroke="black" d="M260,-154.56C260,-147.09 260,-138.12 260,-129.67"/>
<polygon fill="black" stroke="black" points="263.5,-129.79 260,-119.79 256.5,-129.79 263.5,-129.79"/>
</g>
<!-- allow -->
<g id="node13" class="node">
<title>allow</title>
<path fill="#e6f4ea" stroke="black" d="M235.88,-36C235.88,-36 168.12,-36 168.12,-36 162.12,-36 156.12,-30 156.12,-24 156.12,-24 156.12,-12 156.12,-12 156.12,-6 162.12,0 168.12,0 168.12,0 235.88,0 235.88,0 241.88,0 247.88,-6 247.88,-12 247.88,-12 247.88,-24 247.88,-24 247.88,-30 241.88,-36 235.88,-36"/>
<text xml:space="preserve" text-anchor="middle" x="202" y="-14.88" font-family="Helvetica,sans-Serif" font-size="10.00">allow → tool runs</text>
</g>
<!-- decide&#45;&gt;allow -->
<g id="edge12" class="edge">
<title>decide&#45;&gt;allow</title>
<path fill="none" stroke="black" d="M249.9,-84.86C242.01,-74.01 230.82,-58.63 221.24,-45.45"/>
<polygon fill="black" stroke="black" points="224.22,-43.6 215.51,-37.57 218.56,-47.72 224.22,-43.6"/>
<text xml:space="preserve" text-anchor="middle" x="241.6" y="-55.2" font-family="Helvetica,sans-Serif" font-size="9.00">yes</text>
</g>
<!-- deny -->
<g id="node14" class="node">
<title>deny</title>
<path fill="#ffe0e0" stroke="black" d="M359.62,-36C359.62,-36 278.38,-36 278.38,-36 272.38,-36 266.38,-30 266.38,-24 266.38,-24 266.38,-12 266.38,-12 266.38,-6 272.38,0 278.38,0 278.38,0 359.62,0 359.62,0 365.62,0 371.62,-6 371.62,-12 371.62,-12 371.62,-24 371.62,-24 371.62,-30 365.62,-36 359.62,-36"/>
<text xml:space="preserve" text-anchor="middle" x="319" y="-14.88" font-family="Helvetica,sans-Serif" font-size="10.00">deny → tool blocked</text>
</g>
<!-- decide&#45;&gt;deny -->
<g id="edge13" class="edge">
<title>decide&#45;&gt;deny</title>
<path fill="none" stroke="black" d="M270.28,-84.86C278.3,-74.01 289.68,-58.63 299.43,-45.45"/>
<polygon fill="black" stroke="black" points="302.13,-47.69 305.27,-37.56 296.5,-43.52 302.13,-47.69"/>
<text xml:space="preserve" text-anchor="middle" x="316.66" y="-55.2" font-family="Helvetica,sans-Serif" font-size="9.00">no / timeout</text>
</g>
</g>
</svg>
